<?xml version="1.0" standalone="no"?>
<!DOCTYPE svg PUBLIC "-//W3C//DTD SVG 20010904//EN"
 "http://www.w3.org/TR/2001/REC-SVG-20010904/DTD/svg10.dtd">
<svg version="1.0" xmlns="http://www.w3.org/2000/svg"
 width="512.000000pt" height="512.000000pt" viewBox="0 0 512.000000 512.000000"
 preserveAspectRatio="xMidYMid meet">
<metadata>
Created by potrace 1.16, written by Peter Selinger 2001-2019
</metadata>
<g transform="translate(0.000000,512.000000) scale(0.100000,-0.100000)"
fill="#ffffff" stroke="none">
<path d="M1400 4917 c-311 -84 -581 -161 -600 -173 -44 -25 -96 -93 -110 -142
-6 -23 -10 -227 -10 -549 0 -282 -1 -513 -2 -513 -2 0 -28 10 -58 21 -69 26
-196 35 -272 20 -131 -28 -255 -120 -306 -228 -23 -50 -27 -71 -27 -153 0 -88
3 -101 33 -162 53 -107 166 -192 293 -219 30 -6 94 -9 145 -7 80 4 103 10 168
41 92 44 167 115 204 195 l27 57 3 482 3 482 37 10 c20 5 267 71 548 145 281
75 514 136 517 136 4 0 7 -72 7 -160 0 -88 -1 -160 -2 -160 -2 0 -28 10 -58
21 -69 26 -196 35 -272 20 -154 -32 -281 -143 -322 -281 -61 -206 71 -415 299
-475 67 -17 179 -19 244 -4 117 27 226 109 282 211 l34 63 3 672 c2 656 2 674
-18 712 -31 62 -72 86 -155 88 -62 1 -134 -15 -635 -150z m600 -189 c0 -68 -4
-129 -8 -136 -6 -8 -1072 -302 -1099 -302 -8 0 -1 247 6 259 8 12 1046 298
1089 300 9 1 12 -30 12 -121z m-105 -878 c69 -33 100 -80 100 -150 0 -46 -5
-63 -27 -92 -43 -56 -108 -83 -198 -83 -83 1 -122 16 -177 68 -98 92 -46 228
107 278 42 14 145 3 195 -21z m-1329 -498 c53 -27 101 -83 109 -126 25 -130
-158 -245 -306 -194 -112 38 -178 144 -138 221 27 52 84 97 149 118 41 14 142
3 186 -19z"/>
<path d="M3705 5050 c-106 -23 -185 -50 -275 -95 -62 -31 -68 -32 -124 -23
-145 25 -292 -50 -364 -187 -24 -45 -27 -61 -28 -165 -2 -110 -3 -119 -37
-191 -46 -97 -83 -224 -98 -336 -11 -84 -7 -313 6 -358 5 -16 -212 -249 -1125
-1210 -1226 -1290 -1181 -1238 -1198 -1370 -18 -140 19 -247 123 -354 36 -37
65 -76 65 -86 0 -45 -74 -171 -139 -236 -103 -102 -220 -153 -425 -184 -56 -9
-86 -46 -86 -105 0 -38 5 -53 28 -75 26 -27 29 -27 117 -22 266 16 532 182
647 403 l32 61 42 -32 c70 -54 126 -70 239 -70 92 0 106 3 167 32 45 21 94 57
150 110 926 878 848 799 848 858 0 95 -97 139 -172 78 -18 -16 -223 -209 -456
-431 -282 -269 -437 -410 -465 -422 -51 -24 -96 -25 -144 -5 -46 19 -317 285
-344 337 -24 46 -24 122 -1 165 16 29 2160 2293 2171 2293 4 0 18 -27 33 -59
98 -209 303 -415 521 -522 37 -18 67 -36 67 -39 0 -3 -64 -65 -143 -139 -331
-312 -589 -566 -603 -593 -35 -67 18 -148 97 -148 37 0 53 13 466 406 347 329
431 404 447 399 12 -3 75 -8 141 -12 195 -9 366 22 538 99 89 40 95 41 187 39
123 -3 192 20 267 92 87 82 125 191 105 303 -9 56 -8 62 23 124 43 86 81 201
101 308 25 132 15 385 -20 510 -117 420 -418 721 -838 838 -81 23 -117 27
-273 30 -151 3 -194 1 -270 -16z m431 -209 c385 -79 676 -372 756 -761 34
-164 14 -390 -47 -534 l-17 -39 -633 633 c-349 349 -632 637 -629 641 7 11
123 48 200 63 102 21 263 19 370 -3z m-816 -131 c12 0 1423 -1418 1437 -1444
59 -112 -65 -240 -175 -182 -33 18 -1435 1422 -1451 1453 -24 47 -7 116 38
157 26 24 78 35 116 24 16 -4 32 -8 35 -8z m958 -1718 c-298 -111 -645 -60
-908 134 -176 129 -308 331 -361 549 -42 176 -35 345 23 523 l30 95 639 -639
639 -639 -62 -23z"/>
<path d="M2483 2637 l-273 -273 0 -48 c0 -39 5 -53 29 -77 24 -24 38 -29 77
-29 l48 0 273 273 273 273 0 48 c0 39 -5 53 -29 77 -24 24 -38 29 -77 29 l-48
0 -273 -273z"/>
<path d="M4173 2263 c-12 -2 -34 -18 -48 -34 l-25 -31 0 -553 0 -554 -47 29
c-86 53 -157 72 -288 77 -92 4 -135 1 -185 -12 -280 -72 -454 -308 -412 -557
34 -197 192 -358 407 -413 78 -20 242 -20 320 0 199 51 354 195 400 370 13 51
15 162 15 757 0 603 2 698 14 698 8 0 54 -14 101 -31 160 -58 307 -175 363
-288 27 -56 27 -57 30 -298 l3 -242 26 -25 c51 -51 138 -38 170 25 19 37 17
455 -2 538 -54 227 -300 438 -600 516 -90 23 -201 36 -242 28z m-259 -1312
c83 -41 149 -111 170 -182 20 -65 20 -73 0 -139 -21 -71 -94 -148 -177 -186
-56 -26 -72 -29 -172 -29 -100 0 -116 3 -172 29 -133 61 -209 187 -183 303 21
97 111 186 223 223 95 31 225 23 311 -19z"/>
<path d="M2428 1801 c-28 -25 -33 -36 -33 -76 0 -40 5 -51 33 -76 37 -33 77
-37 122 -14 37 19 50 43 50 95 0 91 -102 133 -172 71z"/>
</g>
</svg>
